<svg width="1920" height="1150" viewBox="0 0 1920 1150" fill="none" xmlns="http://www.w3.org/2000/svg" xmlns:xlink="http://www.w3.org/1999/xlink">
<g filter="url(#filter0_i_6514_1403)">
<rect width="1920" height="1150" fill="#F2F2F2"/>
<rect opacity="0.15" width="1920" height="1150" fill="url(#pattern0_6514_1403)"/>
<path d="M305.156 226.38H309.044V227.5H303.7V216.412H305.156V226.38ZM316.631 216.3C317.666 216.3 318.61 216.54 319.463 217.02C320.327 217.5 321.01 218.172 321.511 219.036C322.013 219.889 322.263 220.86 322.263 221.948C322.263 223.025 322.013 223.996 321.511 224.86C321.01 225.724 320.327 226.401 319.463 226.892C318.61 227.372 317.666 227.612 316.631 227.612C315.597 227.612 314.647 227.372 313.783 226.892C312.919 226.401 312.237 225.724 311.735 224.86C311.234 223.996 310.983 223.025 310.983 221.948C310.983 220.86 311.234 219.889 311.735 219.036C312.237 218.172 312.919 217.5 313.783 217.02C314.647 216.54 315.597 216.3 316.631 216.3ZM316.631 217.596C315.842 217.596 315.127 217.777 314.487 218.14C313.858 218.492 313.362 218.999 312.999 219.66C312.637 220.321 312.455 221.084 312.455 221.948C312.455 222.812 312.637 223.575 312.999 224.236C313.362 224.897 313.858 225.409 314.487 225.772C315.127 226.135 315.842 226.316 316.631 226.316C317.421 226.316 318.13 226.135 318.759 225.772C319.389 225.409 319.879 224.897 320.231 224.236C320.594 223.575 320.775 222.812 320.775 221.948C320.775 221.084 320.594 220.321 320.231 219.66C319.879 218.999 319.389 218.492 318.759 218.14C318.13 217.777 317.421 217.596 316.631 217.596ZM325.811 216.412L329.299 225.948L332.819 216.412H334.371L330.099 227.5H328.531L324.259 216.412H325.811ZM338.406 217.564V221.34H342.342V222.476H338.406V226.348H342.822V227.5H336.95V216.412H342.822V217.564H338.406ZM358.641 216.412V217.58H355.713V227.5H354.257V217.58H351.329V216.412H358.641ZM367.351 227.5L364.439 222.924H363.015V227.5H361.559V216.412H365.159C365.991 216.412 366.695 216.556 367.271 216.844C367.847 217.121 368.279 217.511 368.567 218.012C368.855 218.503 368.999 219.057 368.999 219.676C368.999 220.476 368.759 221.169 368.279 221.756C367.799 222.343 367.079 222.711 366.119 222.86L369.175 227.5H367.351ZM363.015 221.772H365.159C365.959 221.772 366.551 221.591 366.935 221.228C367.33 220.855 367.527 220.337 367.527 219.676C367.527 219.015 367.335 218.503 366.951 218.14C366.567 217.767 365.97 217.58 365.159 217.58H363.015V221.772ZM379.218 225.068H374.29L373.426 227.5H371.938L375.97 216.412H377.57L381.586 227.5H380.082L379.218 225.068ZM378.802 223.916L376.754 218.188L374.706 223.916H378.802ZM385.233 216.412L388.721 225.948L392.241 216.412H393.793L389.521 227.5H387.953L383.681 216.412H385.233ZM397.828 217.564V221.34H401.764V222.476H397.828V226.348H402.244V227.5H396.372V216.412H402.244V217.564H397.828ZM406.906 226.38H410.794V227.5H405.45V216.412H406.906V226.38ZM425.922 216.412V217.58H422.994V227.5H421.538V217.58H418.61V216.412H425.922ZM437.353 216.412V227.5H435.881V222.492H430.297V227.5H428.841V216.412H430.297V221.34H435.881V216.412H437.353ZM442.203 217.564V221.34H446.139V222.476H442.203V226.348H446.619V227.5H440.747V216.412H446.619V217.564H442.203ZM461.137 216.412V227.5H459.665V219.42L455.953 227.5H455.009L451.281 219.42V227.5H449.825V216.412H451.313L455.489 225.5L459.649 216.412H461.137ZM466 217.564V221.34H469.936V222.476H466V226.348H470.416V227.5H464.544V216.412H470.416V217.564H466Z" fill="#6E6E6E"/>
<path d="M747.122 321.3L741.218 314.172C740.738 314.94 740.33 315.54 739.994 315.972C738.938 317.748 737.378 319.164 735.314 320.22C733.298 321.276 730.946 321.804 728.258 321.804C724.85 321.804 721.898 321.108 719.402 319.716C716.954 318.324 715.082 316.452 713.786 314.1C712.49 311.7 711.842 309.012 711.842 306.036C711.842 301.86 712.946 298.452 715.154 295.812C717.362 293.124 720.194 291.564 723.65 291.132L722.786 289.692C722.018 288.492 721.442 287.292 721.058 286.092C720.674 284.892 720.482 283.572 720.482 282.132C720.482 279.972 721.058 277.956 722.21 276.084C723.362 274.212 725.042 272.724 727.25 271.62C729.506 270.468 732.194 269.892 735.314 269.892C739.682 269.892 743.066 270.828 745.466 272.7C747.866 274.524 749.498 276.924 750.362 279.9C751.034 282.012 751.298 284.34 751.154 286.884H739.706C739.706 286.068 739.658 285.18 739.562 284.22C739.418 281.484 738.074 280.116 735.53 280.116C734.474 280.116 733.61 280.428 732.938 281.052C732.314 281.676 732.002 282.468 732.002 283.428C732.002 284.244 732.17 284.988 732.506 285.66C732.89 286.332 733.49 287.22 734.306 288.324L759.506 321.3H747.122ZM728.402 311.58C730.082 311.58 731.45 311.052 732.506 309.996C733.61 308.94 734.162 307.596 734.162 305.964C734.162 304.284 733.562 302.892 732.362 301.788C731.162 300.684 729.722 300.132 728.042 300.132C726.362 300.132 724.994 300.612 723.938 301.572C722.93 302.532 722.426 303.9 722.426 305.676C722.426 307.452 722.978 308.892 724.082 309.996C725.234 311.052 726.674 311.58 728.402 311.58Z" fill="black"/>
<path d="M319.06 366.573V377.229H336.268V386.517H319.06V397.821H338.428V407.685H306.748V356.781H338.428V366.573H319.06ZM370.548 407.685L362.34 396.237L355.644 407.685H342.108L355.428 386.733L341.604 367.509H355.428L363.564 378.813L370.26 367.509H383.796L370.188 387.957L384.372 407.685H370.548ZM414.07 367.005C417.382 367.005 420.334 367.845 422.926 369.525C425.566 371.157 427.63 373.533 429.118 376.653C430.654 379.725 431.422 383.373 431.422 387.597C431.422 391.773 430.654 395.421 429.118 398.541C427.63 401.661 425.566 404.061 422.926 405.741C420.334 407.373 417.382 408.189 414.07 408.189C410.998 408.189 408.358 407.493 406.15 406.101C403.942 404.709 402.334 402.813 401.326 400.413V426.837H389.014V367.509H401.326V374.781C402.334 372.381 403.942 370.485 406.15 369.093C408.358 367.701 410.998 367.005 414.07 367.005ZM410.11 377.805C407.518 377.805 405.382 378.693 403.702 380.469C402.07 382.197 401.254 384.573 401.254 387.597C401.254 390.573 402.07 392.949 403.702 394.725C405.382 396.501 407.518 397.389 410.11 397.389C412.75 397.389 414.862 396.525 416.446 394.797C418.078 393.069 418.894 390.669 418.894 387.597C418.894 384.525 418.078 382.125 416.446 380.397C414.862 378.669 412.75 377.805 410.11 377.805ZM475.971 386.517C475.971 387.525 475.851 388.629 475.611 389.829H447.747C447.891 392.853 448.659 395.037 450.051 396.381C451.443 397.677 453.219 398.325 455.379 398.325C457.203 398.325 458.715 397.869 459.915 396.957C461.115 396.045 461.907 394.869 462.291 393.429H475.323C474.795 396.261 473.643 398.805 471.867 401.061C470.091 403.269 467.835 405.021 465.099 406.317C462.363 407.565 459.315 408.189 455.955 408.189C452.019 408.189 448.515 407.373 445.443 405.741C442.419 404.061 440.043 401.661 438.314 398.541C436.587 395.421 435.723 391.773 435.723 387.597C435.723 383.373 436.563 379.725 438.243 376.653C439.971 373.533 442.371 371.157 445.443 369.525C448.515 367.845 452.019 367.005 455.955 367.005C459.939 367.005 463.443 367.821 466.467 369.453C469.491 371.085 471.819 373.389 473.451 376.365C475.131 379.293 475.971 382.677 475.971 386.517ZM463.515 384.645C463.563 382.005 462.843 380.037 461.355 378.741C459.915 377.397 458.115 376.725 455.955 376.725C453.699 376.725 451.827 377.397 450.339 378.741C448.851 380.085 448.011 382.053 447.819 384.645H463.515ZM494.701 375.069C496.237 372.621 498.205 370.677 500.605 369.237C503.053 367.797 505.693 367.077 508.525 367.077V380.253H504.997C501.733 380.253 499.189 380.949 497.365 382.341C495.589 383.733 494.701 386.085 494.701 389.397V407.685H482.389V367.509H494.701V375.069ZM512.526 356.205C512.526 354.333 513.198 352.797 514.542 351.597C515.886 350.349 517.662 349.725 519.87 349.725C522.078 349.725 523.854 350.349 525.198 351.597C526.542 352.797 527.214 354.333 527.214 356.205C527.214 358.029 526.542 359.565 525.198 360.813C523.854 362.013 522.078 362.613 519.87 362.613C517.662 362.613 515.886 362.013 514.542 360.813C513.198 359.565 512.526 358.029 512.526 356.205ZM525.99 367.509V407.685H513.678V367.509H525.99ZM572.65 386.517C572.65 387.525 572.53 388.629 572.29 389.829H544.426C544.57 392.853 545.338 395.037 546.73 396.381C548.122 397.677 549.898 398.325 552.058 398.325C553.882 398.325 555.394 397.869 556.594 396.957C557.794 396.045 558.586 394.869 558.97 393.429H572.002C571.474 396.261 570.322 398.805 568.546 401.061C566.77 403.269 564.514 405.021 561.778 406.317C559.042 407.565 555.994 408.189 552.634 408.189C548.698 408.189 545.194 407.373 542.122 405.741C539.098 404.061 536.722 401.661 534.994 398.541C533.266 395.421 532.402 391.773 532.402 387.597C532.402 383.373 533.242 379.725 534.922 376.653C536.65 373.533 539.05 371.157 542.122 369.525C545.194 367.845 548.698 367.005 552.634 367.005C556.618 367.005 560.122 367.821 563.146 369.453C566.17 371.085 568.498 373.389 570.13 376.365C571.81 379.293 572.65 382.677 572.65 386.517ZM560.194 384.645C560.242 382.005 559.522 380.037 558.034 378.741C556.594 377.397 554.794 376.725 552.634 376.725C550.378 376.725 548.506 377.397 547.018 378.741C545.53 380.085 544.69 382.053 544.498 384.645H560.194ZM604.556 367.077C609.164 367.077 612.812 368.613 615.5 371.685C618.236 374.757 619.604 378.981 619.604 384.357V407.685H607.292V385.797C607.292 383.109 606.572 381.021 605.132 379.533C603.74 377.997 601.868 377.229 599.516 377.229C597.02 377.229 595.028 378.021 593.54 379.605C592.1 381.189 591.38 383.445 591.38 386.373V407.685H579.068V367.509H591.38V374.853C592.532 372.453 594.236 370.557 596.492 369.165C598.796 367.773 601.484 367.077 604.556 367.077ZM645.869 367.005C651.053 367.005 655.397 368.445 658.901 371.325C662.405 374.157 664.613 378.069 665.525 383.061H652.493C652.109 381.333 651.317 379.989 650.117 379.029C648.917 378.069 647.405 377.589 645.581 377.589C643.421 377.589 641.645 378.453 640.253 380.181C638.861 381.861 638.165 384.333 638.165 387.597C638.165 390.861 638.861 393.357 640.253 395.085C641.645 396.765 643.421 397.605 645.581 397.605C647.405 397.605 648.917 397.125 650.117 396.165C651.317 395.205 652.109 393.861 652.493 392.133H665.525C664.613 397.125 662.405 401.061 658.901 403.941C655.397 406.773 651.053 408.189 645.869 408.189C641.933 408.189 638.429 407.373 635.357 405.741C632.333 404.061 629.957 401.661 628.229 398.541C626.501 395.421 625.637 391.773 625.637 387.597C625.637 383.373 626.477 379.725 628.157 376.653C629.885 373.533 632.285 371.157 635.357 369.525C638.429 367.845 641.933 367.005 645.869 367.005ZM710.111 386.517C710.111 387.525 709.991 388.629 709.751 389.829H681.887C682.031 392.853 682.799 395.037 684.191 396.381C685.583 397.677 687.359 398.325 689.519 398.325C691.343 398.325 692.855 397.869 694.055 396.957C695.255 396.045 696.047 394.869 696.431 393.429H709.463C708.935 396.261 707.783 398.805 706.007 401.061C704.231 403.269 701.975 405.021 699.239 406.317C696.503 407.565 693.455 408.189 690.095 408.189C686.159 408.189 682.655 407.373 679.583 405.741C676.559 404.061 674.183 401.661 672.455 398.541C670.727 395.421 669.863 391.773 669.863 387.597C669.863 383.373 670.703 379.725 672.383 376.653C674.111 373.533 676.511 371.157 679.583 369.525C682.655 367.845 686.159 367.005 690.095 367.005C694.079 367.005 697.583 367.821 700.607 369.453C703.631 371.085 705.959 373.389 707.591 376.365C709.271 379.293 710.111 382.677 710.111 386.517ZM697.655 384.645C697.703 382.005 696.983 380.037 695.495 378.741C694.055 377.397 692.255 376.725 690.095 376.725C687.839 376.725 685.967 377.397 684.479 378.741C682.991 380.085 682.151 382.053 681.959 384.645H697.655ZM343.324 443.781V453.573H329.5V494.685H317.116V453.573H303.436V443.781H343.324ZM374.002 454.077C378.61 454.077 382.258 455.613 384.946 458.685C387.682 461.757 389.05 465.981 389.05 471.357V494.685H376.738V472.797C376.738 470.109 376.018 468.021 374.578 466.533C373.186 464.997 371.314 464.229 368.962 464.229C366.466 464.229 364.474 465.021 362.986 466.605C361.546 468.189 360.826 470.445 360.826 473.373V494.685H348.514V441.405H360.826V461.853C361.978 459.453 363.682 457.557 365.938 456.165C368.242 454.773 370.93 454.077 374.002 454.077ZM435.33 473.517C435.33 474.525 435.21 475.629 434.97 476.829H407.106C407.25 479.853 408.018 482.037 409.41 483.381C410.802 484.677 412.578 485.325 414.738 485.325C416.562 485.325 418.074 484.869 419.274 483.957C420.474 483.045 421.266 481.869 421.65 480.429H434.682C434.154 483.261 433.002 485.805 431.226 488.061C429.45 490.269 427.194 492.021 424.458 493.317C421.722 494.565 418.674 495.189 415.314 495.189C411.378 495.189 407.874 494.373 404.802 492.741C401.778 491.061 399.402 488.661 397.674 485.541C395.946 482.421 395.082 478.773 395.082 474.597C395.082 470.373 395.922 466.725 397.602 463.653C399.33 460.533 401.73 458.157 404.802 456.525C407.874 454.845 411.378 454.005 415.314 454.005C419.298 454.005 422.802 454.821 425.826 456.453C428.85 458.085 431.178 460.389 432.81 463.365C434.49 466.293 435.33 469.677 435.33 473.517ZM422.874 471.645C422.922 469.005 422.202 467.037 420.714 465.741C419.274 464.397 417.474 463.725 415.314 463.725C413.058 463.725 411.186 464.397 409.698 465.741C408.21 467.085 407.37 469.053 407.178 471.645H422.874ZM492.738 443.781V453.573H478.914V494.685H466.53V453.573H452.85V443.781H492.738ZM510.24 462.069C511.776 459.621 513.744 457.677 516.144 456.237C518.592 454.797 521.232 454.077 524.064 454.077V467.253H520.536C517.272 467.253 514.728 467.949 512.904 469.341C511.128 470.733 510.24 473.085 510.24 476.397V494.685H497.928V454.509H510.24V462.069ZM544.481 454.005C547.553 454.005 550.193 454.701 552.401 456.093C554.609 457.485 556.241 459.381 557.297 461.781V454.509H569.537V494.685H557.297V487.413C556.241 489.813 554.609 491.709 552.401 493.101C550.193 494.493 547.553 495.189 544.481 495.189C541.169 495.189 538.193 494.373 535.553 492.741C532.961 491.061 530.897 488.661 529.361 485.541C527.873 482.421 527.129 478.773 527.129 474.597C527.129 470.373 527.873 466.725 529.361 463.653C530.897 460.533 532.961 458.157 535.553 456.525C538.193 454.845 541.169 454.005 544.481 454.005ZM548.441 464.805C545.801 464.805 543.665 465.669 542.033 467.397C540.449 469.125 539.657 471.525 539.657 474.597C539.657 477.669 540.449 480.069 542.033 481.797C543.665 483.525 545.801 484.389 548.441 484.389C551.033 484.389 553.145 483.501 554.777 481.725C556.457 479.949 557.297 477.573 557.297 474.597C557.297 471.573 556.457 469.197 554.777 467.469C553.145 465.693 551.033 464.805 548.441 464.805ZM596.59 482.661L605.302 454.509H618.406L604.15 494.685H588.886L574.63 454.509H587.734L596.59 482.661ZM661.666 473.517C661.666 474.525 661.546 475.629 661.306 476.829H633.442C633.586 479.853 634.354 482.037 635.746 483.381C637.138 484.677 638.914 485.325 641.074 485.325C642.898 485.325 644.41 484.869 645.61 483.957C646.81 483.045 647.602 481.869 647.986 480.429H661.018C660.49 483.261 659.338 485.805 657.562 488.061C655.786 490.269 653.53 492.021 650.794 493.317C648.058 494.565 645.01 495.189 641.65 495.189C637.714 495.189 634.21 494.373 631.138 492.741C628.114 491.061 625.738 488.661 624.01 485.541C622.282 482.421 621.418 478.773 621.418 474.597C621.418 470.373 622.258 466.725 623.938 463.653C625.666 460.533 628.066 458.157 631.138 456.525C634.21 454.845 637.714 454.005 641.65 454.005C645.634 454.005 649.138 454.821 652.162 456.453C655.186 458.085 657.514 460.389 659.146 463.365C660.826 466.293 661.666 469.677 661.666 473.517ZM649.21 471.645C649.258 469.005 648.538 467.037 647.05 465.741C645.61 464.397 643.81 463.725 641.65 463.725C639.394 463.725 637.522 464.397 636.034 465.741C634.546 467.085 633.706 469.053 633.514 471.645H649.21ZM680.396 441.405V494.685H668.084V441.405H680.396ZM720.159 441.261L718.647 476.469H708.207L706.695 441.261H720.159ZM719.871 482.373V494.685H707.055V482.373H719.871Z" fill="black"/>
<rect x="302.5" y="317" width="392.84" height="10" fill="#FFD205"/>
<path d="M338.284 312.012H319.204L316.036 321.3H303.076L321.724 270.756H335.908L354.556 321.3H341.452L338.284 312.012ZM335.116 302.652L328.78 283.932L322.372 302.652H335.116ZM374.606 280.62C377.678 280.62 380.318 281.316 382.526 282.708C384.734 284.1 386.342 285.996 387.35 288.396V268.02H399.662V321.3H387.35V314.028C386.342 316.428 384.734 318.324 382.526 319.716C380.318 321.108 377.678 321.804 374.606 321.804C371.294 321.804 368.318 320.988 365.678 319.356C363.086 317.676 361.022 315.276 359.486 312.156C357.998 309.036 357.254 305.388 357.254 301.212C357.254 296.988 357.998 293.34 359.486 290.268C361.022 287.148 363.086 284.772 365.678 283.14C368.318 281.46 371.294 280.62 374.606 280.62ZM378.566 291.42C375.926 291.42 373.79 292.284 372.158 294.012C370.574 295.74 369.782 298.14 369.782 301.212C369.782 304.284 370.574 306.684 372.158 308.412C373.79 310.14 375.926 311.004 378.566 311.004C381.158 311.004 383.27 310.116 384.902 308.34C386.582 306.564 387.422 304.188 387.422 301.212C387.422 298.188 386.582 295.812 384.902 294.084C383.27 292.308 381.158 291.42 378.566 291.42ZM426.715 309.276L435.427 281.124H448.531L434.275 321.3H419.011L404.755 281.124H417.859L426.715 309.276ZM491.791 300.132C491.791 301.14 491.671 302.244 491.431 303.444H463.567C463.711 306.468 464.479 308.652 465.871 309.996C467.263 311.292 469.039 311.94 471.199 311.94C473.023 311.94 474.535 311.484 475.735 310.572C476.935 309.66 477.727 308.484 478.111 307.044H491.143C490.615 309.876 489.463 312.42 487.687 314.676C485.911 316.884 483.655 318.636 480.919 319.932C478.183 321.18 475.135 321.804 471.775 321.804C467.839 321.804 464.335 320.988 461.263 319.356C458.239 317.676 455.863 315.276 454.135 312.156C452.407 309.036 451.543 305.388 451.543 301.212C451.543 296.988 452.383 293.34 454.063 290.268C455.791 287.148 458.191 284.772 461.263 283.14C464.335 281.46 467.839 280.62 471.775 280.62C475.759 280.62 479.263 281.436 482.287 283.068C485.311 284.7 487.639 287.004 489.271 289.98C490.951 292.908 491.791 296.292 491.791 300.132ZM479.335 298.26C479.383 295.62 478.663 293.652 477.175 292.356C475.735 291.012 473.935 290.34 471.775 290.34C469.519 290.34 467.647 291.012 466.159 292.356C464.671 293.7 463.831 295.668 463.639 298.26H479.335ZM523.697 280.692C528.305 280.692 531.953 282.228 534.641 285.3C537.377 288.372 538.745 292.596 538.745 297.972V321.3H526.433V299.412C526.433 296.724 525.713 294.636 524.273 293.148C522.881 291.612 521.009 290.844 518.657 290.844C516.161 290.844 514.169 291.636 512.681 293.22C511.241 294.804 510.521 297.06 510.521 299.988V321.3H498.209V281.124H510.521V288.468C511.673 286.068 513.377 284.172 515.633 282.78C517.937 281.388 520.625 280.692 523.697 280.692ZM569.617 310.716V321.3H564.073C559.369 321.3 555.697 320.148 553.057 317.844C550.465 315.492 549.169 311.628 549.169 306.252V291.492H543.769V281.124H549.169V271.26H561.481V281.124H569.545V291.492H561.481V306.468C561.481 308.052 561.793 309.156 562.417 309.78C563.089 310.404 564.193 310.716 565.729 310.716H569.617ZM616.497 281.124V321.3H604.113V314.028C602.961 316.38 601.233 318.252 598.929 319.644C596.673 321.036 594.033 321.732 591.009 321.732C586.401 321.732 582.729 320.196 579.993 317.124C577.305 314.052 575.961 309.828 575.961 304.452V281.124H588.201V302.94C588.201 305.676 588.897 307.812 590.289 309.348C591.729 310.836 593.649 311.58 596.049 311.58C598.545 311.58 600.513 310.788 601.953 309.204C603.393 307.62 604.113 305.364 604.113 302.436V281.124H616.497ZM637.294 288.684C638.83 286.236 640.798 284.292 643.198 282.852C645.646 281.412 648.286 280.692 651.118 280.692V293.868H647.59C644.326 293.868 641.782 294.564 639.958 295.956C638.182 297.348 637.294 299.7 637.294 303.012V321.3H624.982V281.124H637.294V288.684ZM694.431 300.132C694.431 301.14 694.311 302.244 694.071 303.444H666.207C666.351 306.468 667.119 308.652 668.511 309.996C669.903 311.292 671.679 311.94 673.839 311.94C675.663 311.94 677.175 311.484 678.375 310.572C679.575 309.66 680.367 308.484 680.751 307.044H693.783C693.255 309.876 692.103 312.42 690.327 314.676C688.551 316.884 686.295 318.636 683.559 319.932C680.823 321.18 677.775 321.804 674.415 321.804C670.479 321.804 666.975 320.988 663.903 319.356C660.879 317.676 658.503 315.276 656.775 312.156C655.047 309.036 654.183 305.388 654.183 301.212C654.183 296.988 655.023 293.34 656.703 290.268C658.431 287.148 660.831 284.772 663.903 283.14C666.975 281.46 670.479 280.62 674.415 280.62C678.399 280.62 681.903 281.436 684.927 283.068C687.951 284.7 690.279 287.004 691.911 289.98C693.591 292.908 694.431 296.292 694.431 300.132ZM681.975 298.26C682.023 295.62 681.303 293.652 679.815 292.356C678.375 291.012 676.575 290.34 674.415 290.34C672.159 290.34 670.287 291.012 668.799 292.356C667.311 293.7 666.471 295.668 666.279 298.26H681.975Z" fill="black"/>
<g filter="url(#filter1_d_6514_1403)">
<rect x="287.699" y="573.17" width="1129.59" height="103.72" rx="15" fill="white" shape-rendering="crispEdges"/>
<rect x="1119.49" y="593.71" width="267" height="62.64" rx="10" fill="#5D5FEF"/>
<path d="M1232.63 626.389C1232.63 626.926 1232.5 627.419 1232.22 627.87C1231.95 628.32 1231.55 628.68 1231.01 628.948C1230.48 629.216 1229.84 629.351 1229.08 629.351C1227.94 629.351 1227 629.073 1226.27 628.517C1225.53 627.961 1225.13 627.185 1225.06 626.188H1227.67C1227.71 626.571 1227.85 626.873 1228.08 627.094C1228.32 627.314 1228.62 627.424 1228.98 627.424C1229.3 627.424 1229.55 627.338 1229.73 627.165C1229.91 626.993 1230 626.763 1230 626.475C1230 626.217 1229.92 626.001 1229.75 625.828C1229.58 625.656 1229.38 625.517 1229.13 625.411C1228.88 625.296 1228.53 625.162 1228.09 625.009C1227.45 624.788 1226.92 624.578 1226.51 624.376C1226.11 624.165 1225.76 623.859 1225.46 623.456C1225.17 623.044 1225.03 622.512 1225.03 621.86C1225.03 621.257 1225.18 620.734 1225.49 620.293C1225.8 619.852 1226.22 619.517 1226.75 619.287C1227.3 619.047 1227.92 618.928 1228.62 618.928C1229.75 618.928 1230.65 619.196 1231.31 619.733C1231.98 620.269 1232.36 621.007 1232.45 621.947H1229.79C1229.74 621.611 1229.62 621.348 1229.41 621.156C1229.22 620.955 1228.96 620.854 1228.62 620.854C1228.34 620.854 1228.1 620.931 1227.92 621.084C1227.75 621.237 1227.66 621.463 1227.66 621.76C1227.66 621.999 1227.74 622.205 1227.89 622.378C1228.05 622.541 1228.25 622.675 1228.49 622.781C1228.73 622.886 1229.08 623.02 1229.53 623.183C1230.18 623.404 1230.71 623.624 1231.13 623.844C1231.54 624.055 1231.89 624.367 1232.19 624.779C1232.49 625.191 1232.63 625.728 1232.63 626.389ZM1236.45 621.041V623.169H1239.89V625.023H1236.45V627.28H1240.32V629.25H1233.99V619.086H1240.32V621.041H1236.45ZM1248.01 627.395H1244.2L1243.57 629.25H1240.98L1244.71 619.158H1247.54L1251.26 629.25H1248.65L1248.01 627.395ZM1247.38 625.526L1246.12 621.789L1244.84 625.526H1247.38ZM1257.44 629.25L1255.24 625.411H1254.68V629.25H1252.22V619.086H1256.42C1257.22 619.086 1257.9 619.225 1258.46 619.503C1259.01 619.781 1259.43 620.164 1259.71 620.653C1259.99 621.132 1260.12 621.683 1260.12 622.306C1260.12 623.044 1259.92 623.672 1259.51 624.189C1259.1 624.707 1258.51 625.062 1257.74 625.253L1260.15 629.25H1257.44ZM1254.68 623.729H1256.2C1256.69 623.729 1257.05 623.624 1257.28 623.413C1257.51 623.193 1257.62 622.872 1257.62 622.45C1257.62 622.047 1257.5 621.731 1257.26 621.501C1257.03 621.271 1256.68 621.156 1256.2 621.156H1254.68V623.729ZM1266 618.985C1267.29 618.985 1268.36 619.325 1269.21 620.006C1270.06 620.686 1270.61 621.606 1270.86 622.766H1268.26C1268.07 622.297 1267.77 621.928 1267.37 621.659C1266.97 621.391 1266.5 621.257 1265.96 621.257C1265.24 621.257 1264.66 621.52 1264.22 622.047C1263.78 622.574 1263.56 623.279 1263.56 624.161C1263.56 625.042 1263.78 625.747 1264.22 626.274C1264.66 626.792 1265.24 627.05 1265.96 627.05C1266.5 627.05 1266.97 626.916 1267.37 626.648C1267.77 626.379 1268.07 626.015 1268.26 625.555H1270.86C1270.61 626.705 1270.06 627.625 1269.21 628.316C1268.36 628.996 1267.29 629.336 1266 629.336C1265.01 629.336 1264.15 629.121 1263.4 628.689C1262.65 628.248 1262.07 627.635 1261.66 626.849C1261.26 626.063 1261.06 625.167 1261.06 624.161C1261.06 623.154 1261.26 622.258 1261.66 621.472C1262.07 620.686 1262.65 620.078 1263.4 619.646C1264.15 619.206 1265.01 618.985 1266 618.985ZM1281.02 619.086V629.25H1278.55V625.009H1274.7V629.25H1272.24V619.086H1274.7V623.025H1278.55V619.086H1281.02Z" fill="white"/>
<mask id="path-10-inside-1_6514_1403" fill="white">
<path d="M318.508 593.71H585.508V651.22H318.508V593.71Z"/>
</mask>
<path d="M584.508 593.71V651.22H586.508V593.71H584.508Z" fill="#F1F1F1" mask="url(#path-10-inside-1_6514_1403)"/>
<path d="M420.246 609.471C420.246 610.084 420.087 610.648 419.769 611.163C419.463 611.678 419.002 612.088 418.389 612.395C417.787 612.702 417.053 612.855 416.187 612.855C414.884 612.855 413.81 612.538 412.967 611.902C412.124 611.267 411.664 610.38 411.587 609.241H414.577C414.621 609.679 414.774 610.024 415.037 610.276C415.311 610.528 415.656 610.654 416.072 610.654C416.434 610.654 416.719 610.555 416.927 610.358C417.135 610.161 417.239 609.898 417.239 609.569C417.239 609.273 417.14 609.027 416.943 608.83C416.757 608.633 416.522 608.474 416.237 608.353C415.952 608.222 415.558 608.069 415.054 607.893C414.32 607.641 413.717 607.4 413.246 607.17C412.786 606.929 412.387 606.579 412.047 606.119C411.718 605.648 411.554 605.04 411.554 604.295C411.554 603.605 411.729 603.008 412.08 602.504C412.43 602 412.912 601.617 413.526 601.354C414.15 601.08 414.862 600.943 415.662 600.943C416.954 600.943 417.978 601.25 418.734 601.863C419.501 602.477 419.934 603.32 420.032 604.394H416.993C416.938 604.01 416.795 603.709 416.565 603.49C416.346 603.26 416.045 603.145 415.662 603.145C415.333 603.145 415.065 603.233 414.857 603.408C414.659 603.583 414.561 603.84 414.561 604.18C414.561 604.454 414.648 604.689 414.824 604.887C415.01 605.073 415.24 605.226 415.514 605.347C415.788 605.467 416.182 605.62 416.697 605.807C417.442 606.059 418.05 606.31 418.521 606.562C418.992 606.803 419.397 607.159 419.736 607.63C420.076 608.101 420.246 608.715 420.246 609.471ZM430.507 607.91C430.507 608.14 430.48 608.392 430.425 608.665H424.066C424.099 609.356 424.275 609.854 424.592 610.161C424.91 610.456 425.315 610.604 425.808 610.604C426.224 610.604 426.569 610.5 426.843 610.292C427.117 610.084 427.298 609.816 427.385 609.487H430.359C430.239 610.133 429.976 610.714 429.571 611.229C429.165 611.733 428.651 612.132 428.026 612.428C427.402 612.713 426.706 612.855 425.94 612.855C425.041 612.855 424.242 612.669 423.541 612.297C422.851 611.913 422.308 611.366 421.914 610.654C421.52 609.942 421.323 609.109 421.323 608.156C421.323 607.192 421.514 606.36 421.898 605.659C422.292 604.947 422.84 604.405 423.541 604.032C424.242 603.649 425.041 603.457 425.94 603.457C426.849 603.457 427.648 603.643 428.338 604.016C429.028 604.388 429.56 604.914 429.932 605.593C430.315 606.261 430.507 607.033 430.507 607.91ZM427.665 607.483C427.676 606.88 427.511 606.431 427.172 606.135C426.843 605.829 426.432 605.675 425.94 605.675C425.425 605.675 424.997 605.829 424.658 606.135C424.318 606.442 424.127 606.891 424.083 607.483H427.665ZM435.455 603.457C436.156 603.457 436.758 603.616 437.262 603.934C437.766 604.251 438.139 604.684 438.38 605.232V603.572H441.173V612.74H438.38V611.081C438.139 611.628 437.766 612.061 437.262 612.379C436.758 612.696 436.156 612.855 435.455 612.855C434.699 612.855 434.02 612.669 433.418 612.297C432.826 611.913 432.355 611.366 432.005 610.654C431.665 609.942 431.495 609.109 431.495 608.156C431.495 607.192 431.665 606.36 432.005 605.659C432.355 604.947 432.826 604.405 433.418 604.032C434.02 603.649 434.699 603.457 435.455 603.457ZM436.359 605.922C435.756 605.922 435.269 606.119 434.896 606.513C434.535 606.907 434.354 607.455 434.354 608.156C434.354 608.857 434.535 609.405 434.896 609.799C435.269 610.194 435.756 610.391 436.359 610.391C436.95 610.391 437.432 610.188 437.805 609.783C438.188 609.377 438.38 608.835 438.38 608.156C438.38 607.466 438.188 606.924 437.805 606.53C437.432 606.124 436.95 605.922 436.359 605.922ZM445.917 605.297C446.267 604.739 446.716 604.295 447.264 603.966C447.823 603.638 448.425 603.473 449.071 603.473V606.48H448.266C447.522 606.48 446.941 606.639 446.525 606.957C446.119 607.274 445.917 607.811 445.917 608.567V612.74H443.107V603.572H445.917V605.297ZM454.388 603.457C455.571 603.457 456.562 603.786 457.362 604.443C458.161 605.089 458.665 605.982 458.873 607.121H455.899C455.812 606.727 455.631 606.42 455.357 606.201C455.083 605.982 454.738 605.872 454.322 605.872C453.829 605.872 453.424 606.069 453.106 606.464C452.789 606.847 452.63 607.411 452.63 608.156C452.63 608.901 452.789 609.471 453.106 609.865C453.424 610.248 453.829 610.44 454.322 610.44C454.738 610.44 455.083 610.33 455.357 610.111C455.631 609.892 455.812 609.586 455.899 609.191H458.873C458.665 610.33 458.161 611.229 457.362 611.886C456.562 612.532 455.571 612.855 454.388 612.855C453.49 612.855 452.69 612.669 451.989 612.297C451.299 611.913 450.757 611.366 450.362 610.654C449.968 609.942 449.771 609.109 449.771 608.156C449.771 607.192 449.963 606.36 450.346 605.659C450.74 604.947 451.288 604.405 451.989 604.032C452.69 603.649 453.49 603.457 454.388 603.457ZM466.156 603.473C467.208 603.473 468.04 603.824 468.654 604.525C469.278 605.226 469.59 606.19 469.59 607.417V612.74H466.781V607.745C466.781 607.132 466.616 606.656 466.288 606.316C465.97 605.965 465.543 605.79 465.006 605.79C464.437 605.79 463.982 605.971 463.642 606.332C463.314 606.694 463.149 607.209 463.149 607.877V612.74H460.34V600.582H463.149V605.248C463.412 604.7 463.801 604.268 464.316 603.95C464.842 603.632 465.455 603.473 466.156 603.473Z" fill="black"/>
<rect width="132.47" height="31.84" transform="translate(410.93 619.38)" fill="white"/>
<path d="M413.316 629.557V639.52H412.008V629.557H413.316ZM419.357 631.497C419.923 631.497 420.436 631.627 420.896 631.886C421.365 632.135 421.734 632.513 422.003 633.021C422.281 633.52 422.42 634.128 422.42 634.847V639.52H421.126V635.063C421.126 634.267 420.934 633.663 420.551 633.251C420.167 632.839 419.635 632.633 418.955 632.633C418.284 632.633 417.752 632.839 417.359 633.251C416.976 633.663 416.784 634.267 416.784 635.063V639.52H415.476V631.627H416.784V632.906C417.043 632.446 417.397 632.096 417.848 631.857C418.298 631.617 418.802 631.497 419.357 631.497ZM427.22 631.497C428.073 631.497 428.749 631.723 429.247 632.173C429.746 632.614 430.019 633.223 430.067 633.999H428.716C428.696 633.558 428.548 633.203 428.27 632.935C427.992 632.667 427.609 632.533 427.12 632.533C426.621 632.533 426.228 632.652 425.941 632.892C425.663 633.122 425.524 633.414 425.524 633.769C425.524 634.066 425.61 634.306 425.783 634.488C425.965 634.66 426.185 634.79 426.444 634.876C426.712 634.962 427.072 635.053 427.522 635.149C428.097 635.283 428.557 635.417 428.902 635.552C429.257 635.676 429.559 635.892 429.808 636.199C430.057 636.496 430.182 636.903 430.182 637.421C430.182 637.852 430.057 638.24 429.808 638.585C429.559 638.921 429.209 639.184 428.759 639.376C428.308 639.558 427.791 639.649 427.206 639.649C426.324 639.649 425.615 639.428 425.078 638.988C424.551 638.547 424.264 637.938 424.216 637.162H425.567C425.586 637.603 425.74 637.957 426.027 638.226C426.324 638.484 426.717 638.614 427.206 638.614C427.743 638.614 428.155 638.504 428.442 638.283C428.74 638.063 428.888 637.77 428.888 637.406C428.888 637.109 428.797 636.874 428.615 636.702C428.442 636.52 428.222 636.385 427.954 636.299C427.685 636.203 427.316 636.103 426.847 635.997C426.281 635.873 425.821 635.748 425.466 635.623C425.121 635.489 424.824 635.283 424.575 635.005C424.335 634.727 424.216 634.344 424.216 633.855C424.216 633.424 424.335 633.031 424.575 632.676C424.824 632.312 425.174 632.025 425.625 631.814C426.085 631.603 426.617 631.497 427.22 631.497ZM439.23 635.25C439.23 635.528 439.211 635.786 439.173 636.026H432.89C432.928 636.812 433.173 637.435 433.623 637.895C434.083 638.345 434.668 638.571 435.377 638.571C435.914 638.571 436.364 638.451 436.729 638.211C437.102 637.972 437.376 637.655 437.548 637.262H438.957C438.708 637.952 438.276 638.523 437.663 638.973C437.059 639.424 436.297 639.649 435.377 639.649C434.639 639.649 433.978 639.481 433.393 639.146C432.818 638.81 432.368 638.336 432.042 637.722C431.716 637.099 431.553 636.385 431.553 635.58C431.553 634.766 431.716 634.052 432.042 633.438C432.368 632.815 432.828 632.336 433.422 632.001C434.016 631.665 434.702 631.497 435.478 631.497C436.216 631.497 436.868 631.66 437.433 631.986C437.999 632.312 438.439 632.758 438.756 633.323C439.072 633.889 439.23 634.531 439.23 635.25ZM437.864 635.077C437.864 634.569 437.754 634.128 437.534 633.755C437.313 633.371 437.011 633.079 436.628 632.878C436.254 632.676 435.837 632.576 435.377 632.576C434.697 632.576 434.126 632.801 433.666 633.251C433.206 633.692 432.952 634.301 432.904 635.077H437.864ZM442.168 632.964C442.637 631.986 443.438 631.497 444.569 631.497V632.863H444.224C443.553 632.863 443.04 633.04 442.685 633.395C442.34 633.74 442.168 634.344 442.168 635.207V639.52H440.859V631.627H442.168V632.964ZM449.818 638.456V639.52H448.496C447.825 639.52 447.312 639.357 446.957 639.031C446.612 638.705 446.44 638.192 446.44 637.492V632.691H445.419V631.627H446.44V629.672H447.763V631.627H449.804V632.691H447.763V637.492C447.763 637.847 447.834 638.096 447.978 638.24C448.122 638.384 448.376 638.456 448.74 638.456H449.818ZM458.017 635.552L461.741 639.52H459.972L456.881 636.055V639.52H455.573V628.881H456.881V635.12L459.9 631.627H461.741L458.017 635.552ZM470.103 635.25C470.103 635.528 470.084 635.786 470.046 636.026H463.763C463.802 636.812 464.046 637.435 464.496 637.895C464.957 638.345 465.541 638.571 466.25 638.571C466.787 638.571 467.238 638.451 467.602 638.211C467.976 637.972 468.249 637.655 468.421 637.262H469.83C469.581 637.952 469.15 638.523 468.536 638.973C467.932 639.424 467.17 639.649 466.25 639.649C465.512 639.649 464.851 639.481 464.266 639.146C463.691 638.81 463.241 638.336 462.915 637.722C462.589 637.099 462.426 636.385 462.426 635.58C462.426 634.766 462.589 634.052 462.915 633.438C463.241 632.815 463.701 632.336 464.295 632.001C464.889 631.665 465.575 631.497 466.351 631.497C467.089 631.497 467.741 631.66 468.306 631.986C468.872 632.312 469.313 632.758 469.629 633.323C469.945 633.889 470.103 634.531 470.103 635.25ZM468.738 635.077C468.738 634.569 468.627 634.128 468.407 633.755C468.186 633.371 467.885 633.079 467.501 632.878C467.127 632.676 466.71 632.576 466.25 632.576C465.57 632.576 465 632.801 464.54 633.251C464.08 633.692 463.826 634.301 463.778 635.077H468.738ZM472.265 631.627L474.68 638.01L477.138 631.627H478.49L473.731 643.214H472.38L473.947 639.39L470.827 631.627H472.265ZM490.101 631.627L487.614 639.52H486.262L484.479 633.251L482.697 639.52H481.331L478.829 631.627H480.181L482.007 638.211L483.861 631.627H485.213L486.967 638.226L488.778 631.627H490.101ZM494.811 631.497C495.558 631.497 496.234 631.665 496.838 632.001C497.442 632.336 497.916 632.815 498.261 633.438C498.616 634.061 498.793 634.775 498.793 635.58C498.793 636.376 498.611 637.085 498.247 637.708C497.883 638.321 497.389 638.801 496.766 639.146C496.143 639.481 495.453 639.649 494.696 639.649C493.958 639.649 493.292 639.481 492.697 639.146C492.113 638.81 491.653 638.336 491.317 637.722C490.991 637.099 490.828 636.385 490.828 635.58C490.828 634.766 491.001 634.052 491.346 633.438C491.701 632.815 492.18 632.336 492.784 632.001C493.387 631.665 494.063 631.497 494.811 631.497ZM494.768 632.576C494.288 632.576 493.852 632.691 493.459 632.921C493.066 633.151 492.75 633.491 492.51 633.941C492.28 634.392 492.165 634.938 492.165 635.58C492.165 636.213 492.276 636.754 492.496 637.205C492.726 637.655 493.033 637.996 493.416 638.226C493.8 638.456 494.226 638.571 494.696 638.571C495.175 638.571 495.621 638.456 496.033 638.226C496.454 637.986 496.795 637.641 497.054 637.191C497.312 636.74 497.442 636.203 497.442 635.58C497.442 634.948 497.317 634.406 497.068 633.956C496.828 633.496 496.502 633.151 496.09 632.921C495.688 632.691 495.247 632.576 494.768 632.576ZM501.738 632.964C502.208 631.986 503.008 631.497 504.139 631.497V632.863H503.794C503.123 632.863 502.61 633.04 502.255 633.395C501.91 633.74 501.738 634.344 501.738 635.207V639.52H500.43V631.627H501.738V632.964ZM508.972 631.497C509.643 631.497 510.227 631.656 510.726 631.972C511.234 632.288 511.617 632.7 511.876 633.208V628.881H513.198V639.52H511.876V637.909C511.617 638.427 511.234 638.849 510.726 639.174C510.227 639.491 509.643 639.649 508.972 639.649C508.262 639.649 507.62 639.476 507.045 639.131C506.48 638.777 506.029 638.288 505.694 637.665C505.368 637.032 505.205 636.318 505.205 635.523C505.205 634.727 505.368 634.028 505.694 633.424C506.029 632.81 506.48 632.336 507.045 632.001C507.62 631.665 508.262 631.497 508.972 631.497ZM509.202 632.633C508.732 632.633 508.291 632.748 507.879 632.978C507.477 633.208 507.151 633.544 506.901 633.985C506.662 634.416 506.542 634.929 506.542 635.523C506.542 636.117 506.662 636.644 506.901 637.104C507.151 637.555 507.477 637.905 507.879 638.154C508.291 638.403 508.732 638.528 509.202 638.528C509.681 638.528 510.122 638.408 510.524 638.168C510.936 637.929 511.262 637.588 511.502 637.147C511.751 636.697 511.876 636.175 511.876 635.58C511.876 634.986 511.751 634.469 511.502 634.028C511.262 633.577 510.936 633.232 510.524 632.993C510.122 632.753 509.681 632.633 509.202 632.633Z" fill="#757575"/>
<path d="M379.702 630.679C380.244 631.28 380.244 632.183 379.642 632.724L377.957 634.409C377.416 635.011 376.513 635.011 375.912 634.409L369.955 628.452C369.654 628.152 369.533 627.79 369.533 627.429V626.407C367.367 628.091 364.72 629.054 361.832 629.054C354.912 629.054 349.316 623.458 349.316 616.539C349.316 609.679 354.912 604.023 361.832 604.023C368.691 604.023 374.347 609.679 374.347 616.539C374.347 619.487 373.324 622.135 371.7 624.24H372.662C373.023 624.24 373.384 624.421 373.685 624.662L379.702 630.679ZM361.832 624.24C366.044 624.24 369.533 620.811 369.533 616.539C369.533 612.327 366.044 608.837 361.832 608.837C357.56 608.837 354.13 612.327 354.13 616.539C354.13 620.811 357.56 624.24 361.832 624.24Z" fill="#14B9D5"/>
<mask id="path-15-inside-2_6514_1403" fill="white">
<path d="M585.508 593.71H852.498V652.24H585.508V593.71Z"/>
</mask>
<path d="M851.498 593.71V652.24H853.498V593.71H851.498Z" fill="#F1F1F1" mask="url(#path-15-inside-2_6514_1403)"/>
<path d="M689.349 606.907C689.349 608.047 689.102 609.06 688.609 609.947C688.127 610.823 687.426 611.508 686.506 612.001C685.597 612.494 684.524 612.74 683.286 612.74H678.899V601.124H683.286C684.535 601.124 685.614 601.365 686.523 601.847C687.432 602.329 688.127 603.008 688.609 603.884C689.102 604.761 689.349 605.768 689.349 606.907ZM683.04 610.226C684.135 610.226 684.984 609.936 685.586 609.356C686.2 608.775 686.506 607.959 686.506 606.907C686.506 605.856 686.2 605.04 685.586 604.459C684.984 603.879 684.135 603.589 683.04 603.589H681.709V610.226H683.04ZM699.657 607.91C699.657 608.14 699.63 608.392 699.575 608.665H693.217C693.249 609.356 693.425 609.854 693.742 610.161C694.06 610.456 694.465 610.604 694.958 610.604C695.374 610.604 695.719 610.5 695.993 610.292C696.267 610.084 696.448 609.816 696.535 609.487H699.509C699.389 610.133 699.126 610.714 698.721 611.229C698.315 611.733 697.801 612.132 697.176 612.428C696.552 612.713 695.856 612.855 695.09 612.855C694.191 612.855 693.392 612.669 692.691 612.297C692.001 611.913 691.458 611.366 691.064 610.654C690.67 609.942 690.473 609.109 690.473 608.156C690.473 607.192 690.664 606.36 691.048 605.659C691.442 604.947 691.99 604.405 692.691 604.032C693.392 603.649 694.191 603.457 695.09 603.457C695.999 603.457 696.798 603.643 697.488 604.016C698.178 604.388 698.71 604.914 699.082 605.593C699.466 606.261 699.657 607.033 699.657 607.91ZM696.815 607.483C696.826 606.88 696.661 606.431 696.322 606.135C695.993 605.829 695.582 605.675 695.09 605.675C694.575 605.675 694.148 605.829 693.808 606.135C693.468 606.442 693.277 606.891 693.233 607.483H696.815ZM704.457 603.457C705.618 603.457 706.544 603.747 707.234 604.328C707.935 604.908 708.373 605.675 708.548 606.628H705.92C705.843 606.256 705.668 605.965 705.394 605.757C705.131 605.538 704.797 605.429 704.391 605.429C704.074 605.429 703.833 605.5 703.669 605.642C703.504 605.774 703.422 605.965 703.422 606.217C703.422 606.502 703.57 606.716 703.866 606.858C704.172 607.001 704.649 607.143 705.295 607.285C705.996 607.45 706.571 607.619 707.02 607.795C707.469 607.959 707.858 608.233 708.187 608.616C708.516 609 708.68 609.514 708.68 610.161C708.68 610.686 708.537 611.152 708.253 611.557C707.968 611.963 707.557 612.28 707.02 612.51C706.484 612.74 705.848 612.855 705.114 612.855C703.877 612.855 702.885 612.581 702.141 612.034C701.396 611.486 700.941 610.703 700.777 609.684H703.488C703.532 610.079 703.696 610.38 703.981 610.588C704.276 610.796 704.654 610.9 705.114 610.9C705.432 610.9 705.673 610.829 705.837 610.686C706.002 610.533 706.084 610.336 706.084 610.095C706.084 609.777 705.93 609.553 705.624 609.421C705.328 609.279 704.841 609.131 704.161 608.978C703.482 608.835 702.924 608.682 702.486 608.518C702.047 608.353 701.67 608.09 701.352 607.729C701.034 607.357 700.875 606.853 700.875 606.217C700.875 605.396 701.188 604.733 701.812 604.229C702.436 603.714 703.318 603.457 704.457 603.457ZM715.428 610.325V612.74H714.162C713.089 612.74 712.251 612.477 711.649 611.952C711.057 611.415 710.761 610.533 710.761 609.306V605.938H709.529V603.572H710.761V601.321H713.571V603.572H715.411V605.938H713.571V609.356C713.571 609.717 713.642 609.969 713.785 610.111C713.938 610.254 714.19 610.325 714.54 610.325H715.428ZM716.744 600.992C716.744 600.565 716.897 600.215 717.204 599.941C717.511 599.656 717.916 599.514 718.42 599.514C718.924 599.514 719.329 599.656 719.636 599.941C719.942 600.215 720.096 600.565 720.096 600.992C720.096 601.409 719.942 601.759 719.636 602.044C719.329 602.318 718.924 602.455 718.42 602.455C717.916 602.455 717.511 602.318 717.204 602.044C716.897 601.759 716.744 601.409 716.744 600.992ZM719.816 603.572V612.74H717.007V603.572H719.816ZM727.572 603.473C728.624 603.473 729.456 603.824 730.07 604.525C730.694 605.226 731.006 606.19 731.006 607.417V612.74H728.197V607.745C728.197 607.132 728.033 606.656 727.704 606.316C727.386 605.965 726.959 605.79 726.422 605.79C725.853 605.79 725.398 605.971 725.059 606.332C724.73 606.694 724.566 607.209 724.566 607.877V612.74H721.756V603.572H724.566V605.248C724.829 604.7 725.217 604.268 725.732 603.95C726.258 603.632 726.871 603.473 727.572 603.473ZM736.343 603.457C737.044 603.457 737.646 603.616 738.15 603.934C738.654 604.251 739.026 604.684 739.267 605.232V603.572H742.06V612.74H739.267V611.081C739.026 611.628 738.654 612.061 738.15 612.379C737.646 612.696 737.044 612.855 736.343 612.855C735.587 612.855 734.908 612.669 734.305 612.297C733.714 611.913 733.243 611.366 732.892 610.654C732.553 609.942 732.383 609.109 732.383 608.156C732.383 607.192 732.553 606.36 732.892 605.659C733.243 604.947 733.714 604.405 734.305 604.032C734.908 603.649 735.587 603.457 736.343 603.457ZM737.246 605.922C736.644 605.922 736.157 606.119 735.784 606.513C735.423 606.907 735.242 607.455 735.242 608.156C735.242 608.857 735.423 609.405 735.784 609.799C736.157 610.194 736.644 610.391 737.246 610.391C737.838 610.391 738.32 610.188 738.692 609.783C739.076 609.377 739.267 608.835 739.267 608.156C739.267 607.466 739.076 606.924 738.692 606.53C738.32 606.124 737.838 605.922 737.246 605.922ZM749.187 610.325V612.74H747.922C746.848 612.74 746.01 612.477 745.408 611.952C744.816 611.415 744.521 610.533 744.521 609.306V605.938H743.288V603.572H744.521V601.321H747.33V603.572H749.17V605.938H747.33V609.356C747.33 609.717 747.401 609.969 747.544 610.111C747.697 610.254 747.949 610.325 748.3 610.325H749.187ZM750.503 600.992C750.503 600.565 750.657 600.215 750.963 599.941C751.27 599.656 751.675 599.514 752.179 599.514C752.683 599.514 753.088 599.656 753.395 599.941C753.702 600.215 753.855 600.565 753.855 600.992C753.855 601.409 753.702 601.759 753.395 602.044C753.088 602.318 752.683 602.455 752.179 602.455C751.675 602.455 751.27 602.318 750.963 602.044C750.657 601.759 750.503 601.409 750.503 600.992ZM753.576 603.572V612.74H750.766V603.572H753.576ZM759.804 603.457C760.713 603.457 761.524 603.649 762.235 604.032C762.958 604.405 763.523 604.947 763.928 605.659C764.344 606.371 764.552 607.203 764.552 608.156C764.552 609.109 764.344 609.942 763.928 610.654C763.523 611.366 762.958 611.913 762.235 612.297C761.524 612.669 760.713 612.855 759.804 612.855C758.895 612.855 758.079 612.669 757.356 612.297C756.633 611.913 756.063 611.366 755.647 610.654C755.242 609.942 755.039 609.109 755.039 608.156C755.039 607.203 755.242 606.371 755.647 605.659C756.063 604.947 756.633 604.405 757.356 604.032C758.079 603.649 758.895 603.457 759.804 603.457ZM759.804 605.889C759.267 605.889 758.812 606.086 758.44 606.48C758.079 606.864 757.898 607.422 757.898 608.156C757.898 608.89 758.079 609.449 758.44 609.832C758.812 610.215 759.267 610.407 759.804 610.407C760.341 610.407 760.79 610.215 761.151 609.832C761.513 609.449 761.693 608.89 761.693 608.156C761.693 607.422 761.513 606.864 761.151 606.48C760.79 606.086 760.341 605.889 759.804 605.889ZM771.825 603.473C772.877 603.473 773.709 603.824 774.323 604.525C774.947 605.226 775.259 606.19 775.259 607.417V612.74H772.45V607.745C772.45 607.132 772.286 606.656 771.957 606.316C771.639 605.965 771.212 605.79 770.675 605.79C770.106 605.79 769.651 605.971 769.312 606.332C768.983 606.694 768.819 607.209 768.819 607.877V612.74H766.009V603.572H768.819V605.248C769.082 604.7 769.47 604.268 769.985 603.95C770.511 603.632 771.124 603.473 771.825 603.473ZM780.448 603.457C781.609 603.457 782.534 603.747 783.225 604.328C783.926 604.908 784.364 605.675 784.539 606.628H781.91C781.833 606.256 781.658 605.965 781.384 605.757C781.121 605.538 780.787 605.429 780.382 605.429C780.064 605.429 779.823 605.5 779.659 605.642C779.495 605.774 779.413 605.965 779.413 606.217C779.413 606.502 779.561 606.716 779.856 606.858C780.163 607.001 780.64 607.143 781.286 607.285C781.987 607.45 782.562 607.619 783.011 607.795C783.46 607.959 783.849 608.233 784.178 608.616C784.506 609 784.67 609.514 784.67 610.161C784.67 610.686 784.528 611.152 784.243 611.557C783.958 611.963 783.548 612.28 783.011 612.51C782.474 612.74 781.839 612.855 781.105 612.855C779.867 612.855 778.876 612.581 778.131 612.034C777.386 611.486 776.932 610.703 776.767 609.684H779.478C779.522 610.079 779.687 610.38 779.971 610.588C780.267 610.796 780.645 610.9 781.105 610.9C781.423 610.9 781.664 610.829 781.828 610.686C781.992 610.533 782.074 610.336 782.074 610.095C782.074 609.777 781.921 609.553 781.614 609.421C781.319 609.279 780.831 609.131 780.152 608.978C779.473 608.835 778.914 608.682 778.476 608.518C778.038 608.353 777.66 608.09 777.342 607.729C777.025 607.357 776.866 606.853 776.866 606.217C776.866 605.396 777.178 604.733 777.803 604.229C778.427 603.714 779.309 603.457 780.448 603.457Z" fill="black"/>
<rect width="132.47" height="32.86" transform="translate(677.93 619.38)" fill="white"/>
<g clip-path="url(#clip0_6514_1403)">
<path d="M689.205 638.624H684.777L684.001 640.81H682.664L686.287 630.847H687.724L691.333 640.81H689.982L689.205 638.624ZM688.831 637.589L686.991 632.442L685.151 637.589H688.831ZM694.358 630.171V640.81H693.05V630.171H694.358ZM697.826 630.171V640.81H696.517V630.171H697.826ZM712.648 635.878C712.648 636.904 712.437 637.79 712.016 638.538C711.594 639.276 710.99 639.842 710.204 640.235C709.428 640.618 708.508 640.81 707.444 640.81H704.295V630.847H707.444C708.508 630.847 709.428 631.053 710.204 631.465C710.99 631.867 711.594 632.447 712.016 633.204C712.437 633.952 712.648 634.843 712.648 635.878ZM707.444 639.803C708.699 639.803 709.658 639.458 710.319 638.768C710.98 638.078 711.311 637.115 711.311 635.878C711.311 634.642 710.98 633.679 710.319 632.989C709.658 632.299 708.699 631.954 707.444 631.954H705.604V639.803H707.444ZM721.465 636.54C721.465 636.818 721.446 637.076 721.408 637.316H715.125C715.163 638.102 715.408 638.725 715.858 639.185C716.318 639.635 716.903 639.861 717.612 639.861C718.149 639.861 718.599 639.741 718.964 639.501C719.337 639.262 719.611 638.945 719.783 638.552H721.192C720.943 639.243 720.511 639.813 719.898 640.263C719.294 640.714 718.532 640.939 717.612 640.939C716.874 640.939 716.213 640.771 715.628 640.436C715.053 640.1 714.603 639.626 714.277 639.012C713.951 638.39 713.788 637.675 713.788 636.87C713.788 636.056 713.951 635.342 714.277 634.728C714.603 634.105 715.063 633.626 715.657 633.291C716.251 632.955 716.937 632.787 717.713 632.787C718.451 632.787 719.103 632.95 719.668 633.276C720.234 633.602 720.674 634.048 720.991 634.613C721.307 635.179 721.465 635.821 721.465 636.54ZM720.099 636.367C720.099 635.859 719.989 635.418 719.769 635.045C719.548 634.661 719.246 634.369 718.863 634.168C718.489 633.966 718.072 633.866 717.612 633.866C716.932 633.866 716.361 634.091 715.901 634.541C715.441 634.982 715.187 635.591 715.139 636.367H720.099ZM725.812 632.787C726.665 632.787 727.34 633.013 727.839 633.463C728.337 633.904 728.61 634.513 728.658 635.289H727.307C727.288 634.848 727.139 634.493 726.861 634.225C726.583 633.957 726.2 633.823 725.711 633.823C725.213 633.823 724.82 633.942 724.532 634.182C724.254 634.412 724.115 634.704 724.115 635.059C724.115 635.356 724.201 635.596 724.374 635.778C724.556 635.95 724.776 636.08 725.035 636.166C725.304 636.252 725.663 636.343 726.114 636.439C726.689 636.573 727.149 636.707 727.494 636.842C727.848 636.966 728.15 637.182 728.399 637.489C728.649 637.786 728.773 638.193 728.773 638.711C728.773 639.142 728.649 639.53 728.399 639.875C728.15 640.211 727.8 640.474 727.35 640.666C726.899 640.848 726.382 640.939 725.797 640.939C724.915 640.939 724.206 640.719 723.669 640.278C723.142 639.837 722.855 639.228 722.807 638.452H724.158C724.177 638.893 724.331 639.247 724.618 639.516C724.915 639.774 725.308 639.904 725.797 639.904C726.334 639.904 726.746 639.794 727.034 639.573C727.331 639.353 727.479 639.06 727.479 638.696C727.479 638.399 727.388 638.164 727.206 637.992C727.034 637.81 726.813 637.675 726.545 637.589C726.276 637.493 725.907 637.393 725.438 637.287C724.872 637.163 724.412 637.038 724.058 636.914C723.713 636.779 723.415 636.573 723.166 636.295C722.927 636.017 722.807 635.634 722.807 635.145C722.807 634.714 722.927 634.321 723.166 633.966C723.415 633.602 723.765 633.315 724.216 633.104C724.676 632.893 725.208 632.787 725.812 632.787ZM734.328 639.746V640.81H733.005C732.334 640.81 731.821 640.647 731.467 640.321C731.122 639.995 730.949 639.482 730.949 638.782V633.981H729.929V632.917H730.949V630.962H732.272V632.917H734.313V633.981H732.272V638.782C732.272 639.137 732.344 639.386 732.488 639.53C732.631 639.674 732.885 639.746 733.25 639.746H734.328ZM735.557 630.76C735.557 630.511 735.643 630.3 735.815 630.128C735.988 629.955 736.194 629.869 736.434 629.869C736.683 629.869 736.894 629.955 737.066 630.128C737.239 630.3 737.325 630.511 737.325 630.76C737.325 631.01 737.239 631.22 737.066 631.393C736.894 631.565 736.683 631.652 736.434 631.652C736.184 631.652 735.973 631.565 735.801 631.393C735.638 631.22 735.557 631.01 735.557 630.76ZM737.08 632.917V640.81H735.772V632.917H737.08ZM743.122 632.787C743.687 632.787 744.2 632.917 744.66 633.176C745.13 633.425 745.499 633.803 745.767 634.311C746.045 634.81 746.184 635.418 746.184 636.137V640.81H744.89V636.353C744.89 635.557 744.698 634.954 744.315 634.541C743.932 634.129 743.4 633.923 742.719 633.923C742.048 633.923 741.516 634.129 741.123 634.541C740.74 634.954 740.548 635.557 740.548 636.353V640.81H739.24V632.917H740.548V634.196C740.807 633.736 741.162 633.386 741.612 633.147C742.063 632.907 742.566 632.787 743.122 632.787ZM751.517 632.787C752.188 632.787 752.772 632.946 753.271 633.262C753.779 633.578 754.162 633.99 754.421 634.498V632.917H755.743V640.81H754.421V639.199C754.162 639.717 753.779 640.139 753.271 640.465C752.772 640.781 752.188 640.939 751.517 640.939C750.807 640.939 750.165 640.766 749.59 640.421C749.025 640.067 748.574 639.578 748.239 638.955C747.913 638.322 747.75 637.608 747.75 636.813C747.75 636.017 747.913 635.318 748.239 634.714C748.574 634.1 749.025 633.626 749.59 633.291C750.165 632.955 750.807 632.787 751.517 632.787ZM751.747 633.923C751.277 633.923 750.836 634.038 750.424 634.268C750.021 634.498 749.696 634.834 749.446 635.275C749.207 635.706 749.087 636.219 749.087 636.813C749.087 637.407 749.207 637.934 749.446 638.394C749.696 638.845 750.021 639.195 750.424 639.444C750.836 639.693 751.277 639.818 751.747 639.818C752.226 639.818 752.667 639.698 753.069 639.458C753.481 639.219 753.807 638.878 754.047 638.437C754.296 637.987 754.421 637.465 754.421 636.87C754.421 636.276 754.296 635.759 754.047 635.318C753.807 634.867 753.481 634.522 753.069 634.283C752.667 634.043 752.226 633.923 751.747 633.923ZM761.565 639.746V640.81H760.242C759.571 640.81 759.058 640.647 758.704 640.321C758.359 639.995 758.186 639.482 758.186 638.782V633.981H757.165V632.917H758.186V630.962H759.509V632.917H761.55V633.981H759.509V638.782C759.509 639.137 759.581 639.386 759.725 639.53C759.868 639.674 760.122 639.746 760.486 639.746H761.565ZM762.793 630.76C762.793 630.511 762.88 630.3 763.052 630.128C763.225 629.955 763.431 629.869 763.67 629.869C763.92 629.869 764.131 629.955 764.303 630.128C764.476 630.3 764.562 630.511 764.562 630.76C764.562 631.01 764.476 631.22 764.303 631.393C764.131 631.565 763.92 631.652 763.67 631.652C763.421 631.652 763.21 631.565 763.038 631.393C762.875 631.22 762.793 631.01 762.793 630.76ZM764.317 632.917V640.81H763.009V632.917H764.317ZM769.942 632.787C770.689 632.787 771.365 632.955 771.969 633.291C772.573 633.626 773.047 634.105 773.392 634.728C773.747 635.351 773.924 636.065 773.924 636.87C773.924 637.666 773.742 638.375 773.378 638.998C773.013 639.612 772.52 640.091 771.897 640.436C771.274 640.771 770.584 640.939 769.827 640.939C769.089 640.939 768.423 640.771 767.828 640.436C767.244 640.1 766.784 639.626 766.448 639.012C766.122 638.39 765.959 637.675 765.959 636.87C765.959 636.056 766.132 635.342 766.477 634.728C766.832 634.105 767.311 633.626 767.915 633.291C768.518 632.955 769.194 632.787 769.942 632.787ZM769.899 633.866C769.419 633.866 768.983 633.981 768.59 634.211C768.197 634.441 767.881 634.781 767.641 635.231C767.411 635.682 767.296 636.228 767.296 636.87C767.296 637.503 767.407 638.044 767.627 638.495C767.857 638.945 768.164 639.286 768.547 639.516C768.931 639.746 769.357 639.861 769.827 639.861C770.306 639.861 770.752 639.746 771.164 639.516C771.585 639.276 771.926 638.931 772.184 638.481C772.443 638.03 772.573 637.493 772.573 636.87C772.573 636.238 772.448 635.696 772.199 635.246C771.959 634.786 771.633 634.441 771.221 634.211C770.819 633.981 770.378 633.866 769.899 633.866ZM779.442 632.787C780.008 632.787 780.521 632.917 780.981 633.176C781.45 633.425 781.819 633.803 782.088 634.311C782.366 634.81 782.504 635.418 782.504 636.137V640.81H781.211V636.353C781.211 635.557 781.019 634.954 780.636 634.541C780.252 634.129 779.72 633.923 779.04 633.923C778.369 633.923 777.837 634.129 777.444 634.541C777.061 634.954 776.869 635.557 776.869 636.353V640.81H775.561V632.917H776.869V634.196C777.128 633.736 777.482 633.386 777.933 633.147C778.383 632.907 778.886 632.787 779.442 632.787ZM787.305 632.787C788.158 632.787 788.834 633.013 789.332 633.463C789.831 633.904 790.104 634.513 790.152 635.289H788.8C788.781 634.848 788.633 634.493 788.355 634.225C788.077 633.957 787.693 633.823 787.205 633.823C786.706 633.823 786.313 633.942 786.026 634.182C785.748 634.412 785.609 634.704 785.609 635.059C785.609 635.356 785.695 635.596 785.868 635.778C786.05 635.95 786.27 636.08 786.529 636.166C786.797 636.252 787.157 636.343 787.607 636.439C788.182 636.573 788.642 636.707 788.987 636.842C789.342 636.966 789.644 637.182 789.893 637.489C790.142 637.786 790.267 638.193 790.267 638.711C790.267 639.142 790.142 639.53 789.893 639.875C789.644 640.211 789.294 640.474 788.844 640.666C788.393 640.848 787.876 640.939 787.291 640.939C786.409 640.939 785.7 640.719 785.163 640.278C784.636 639.837 784.348 639.228 784.301 638.452H785.652C785.671 638.893 785.824 639.247 786.112 639.516C786.409 639.774 786.802 639.904 787.291 639.904C787.828 639.904 788.24 639.794 788.527 639.573C788.824 639.353 788.973 639.06 788.973 638.696C788.973 638.399 788.882 638.164 788.7 637.992C788.527 637.81 788.307 637.675 788.038 637.589C787.77 637.493 787.401 637.393 786.931 637.287C786.366 637.163 785.906 637.038 785.551 636.914C785.206 636.779 784.909 636.573 784.66 636.295C784.42 636.017 784.301 635.634 784.301 635.145C784.301 634.714 784.42 634.321 784.66 633.966C784.909 633.602 785.259 633.315 785.709 633.104C786.169 632.893 786.701 632.787 787.305 632.787Z" fill="#6E6E6E"/>
</g>
<path d="M626.658 634.229C617.873 621.593 616.309 620.269 616.309 615.576C616.309 609.198 621.423 604.023 627.861 604.023C634.239 604.023 639.414 609.198 639.414 615.576C639.414 620.269 637.789 621.593 629.004 634.229C628.463 635.071 627.199 635.071 626.658 634.229ZM627.861 620.39C630.509 620.39 632.675 618.284 632.675 615.576C632.675 612.929 630.509 610.762 627.861 610.762C625.154 610.762 623.048 612.929 623.048 615.576C623.048 618.284 625.154 620.39 627.861 620.39Z" fill="#14B9D5"/>
<mask id="path-20-inside-3_6514_1403" fill="white">
<path d="M852.5 593.71H1119.49V652.24H852.5V593.71Z"/>
</mask>
<path d="M1118.49 593.71V652.24H1120.49V593.71H1118.49Z" fill="#F1F1F1" mask="url(#path-20-inside-3_6514_1403)"/>
<path d="M954.238 601.124V603.358H951.083V612.74H948.257V603.358H945.135V601.124H954.238ZM957.542 603.572L959.743 609.191L961.797 603.572H964.903L959.185 617.111H956.096L958.248 612.395L954.404 603.572H957.542ZM971.553 603.457C972.309 603.457 972.983 603.649 973.574 604.032C974.177 604.405 974.648 604.947 974.987 605.659C975.338 606.36 975.513 607.192 975.513 608.156C975.513 609.109 975.338 609.942 974.987 610.654C974.648 611.366 974.177 611.913 973.574 612.297C972.983 612.669 972.309 612.855 971.553 612.855C970.852 612.855 970.25 612.696 969.746 612.379C969.242 612.061 968.875 611.628 968.645 611.081V617.111H965.836V603.572H968.645V605.232C968.875 604.684 969.242 604.251 969.746 603.934C970.25 603.616 970.852 603.457 971.553 603.457ZM970.65 605.922C970.058 605.922 969.571 606.124 969.187 606.53C968.815 606.924 968.629 607.466 968.629 608.156C968.629 608.835 968.815 609.377 969.187 609.783C969.571 610.188 970.058 610.391 970.65 610.391C971.252 610.391 971.734 610.194 972.096 609.799C972.468 609.405 972.654 608.857 972.654 608.156C972.654 607.455 972.468 606.907 972.096 606.513C971.734 606.119 971.252 605.922 970.65 605.922ZM981.259 603.457C982.169 603.457 982.979 603.649 983.691 604.032C984.414 604.405 984.978 604.947 985.383 605.659C985.8 606.371 986.008 607.203 986.008 608.156C986.008 609.109 985.8 609.942 985.383 610.654C984.978 611.366 984.414 611.913 983.691 612.297C982.979 612.669 982.169 612.855 981.259 612.855C980.35 612.855 979.534 612.669 978.811 612.297C978.088 611.913 977.519 611.366 977.102 610.654C976.697 609.942 976.495 609.109 976.495 608.156C976.495 607.203 976.697 606.371 977.102 605.659C977.519 604.947 978.088 604.405 978.811 604.032C979.534 603.649 980.35 603.457 981.259 603.457ZM981.259 605.889C980.723 605.889 980.268 606.086 979.896 606.48C979.534 606.864 979.353 607.422 979.353 608.156C979.353 608.89 979.534 609.449 979.896 609.832C980.268 610.215 980.723 610.407 981.259 610.407C981.796 610.407 982.245 610.215 982.607 609.832C982.968 609.449 983.149 608.89 983.149 608.156C983.149 607.422 982.968 606.864 982.607 606.48C982.245 606.086 981.796 605.889 981.259 605.889ZM990.274 600.582V612.74H987.465V600.582H990.274ZM996.502 603.457C997.412 603.457 998.222 603.649 998.934 604.032C999.657 604.405 1000.22 604.947 1000.63 605.659C1001.04 606.371 1001.25 607.203 1001.25 608.156C1001.25 609.109 1001.04 609.942 1000.63 610.654C1000.22 611.366 999.657 611.913 998.934 612.297C998.222 612.669 997.412 612.855 996.502 612.855C995.593 612.855 994.777 612.669 994.054 612.297C993.331 611.913 992.762 611.366 992.346 610.654C991.94 609.942 991.738 609.109 991.738 608.156C991.738 607.203 991.94 606.371 992.346 605.659C992.762 604.947 993.331 604.405 994.054 604.032C994.777 603.649 995.593 603.457 996.502 603.457ZM996.502 605.889C995.966 605.889 995.511 606.086 995.139 606.48C994.777 606.864 994.596 607.422 994.596 608.156C994.596 608.89 994.777 609.449 995.139 609.832C995.511 610.215 995.966 610.407 996.502 610.407C997.039 610.407 997.488 610.215 997.85 609.832C998.211 609.449 998.392 608.89 998.392 608.156C998.392 607.422 998.211 606.864 997.85 606.48C997.488 606.086 997.039 605.889 996.502 605.889ZM1006.19 603.457C1006.89 603.457 1007.49 603.616 1008 603.934C1008.5 604.251 1008.87 604.684 1009.12 605.232V603.572H1011.91V612.691C1011.91 613.545 1011.74 614.312 1011.42 614.991C1011.09 615.681 1010.58 616.229 1009.9 616.634C1009.23 617.04 1008.38 617.242 1007.37 617.242C1005.99 617.242 1004.89 616.914 1004.06 616.256C1003.23 615.61 1002.74 614.728 1002.58 613.611H1005.35C1005.44 613.983 1005.64 614.274 1005.94 614.482C1006.26 614.69 1006.67 614.794 1007.18 614.794C1007.76 614.794 1008.22 614.624 1008.57 614.285C1008.93 613.956 1009.12 613.425 1009.12 612.691V611.081C1008.87 611.628 1008.5 612.061 1008 612.379C1007.49 612.696 1006.89 612.855 1006.19 612.855C1005.44 612.855 1004.76 612.669 1004.15 612.297C1003.56 611.913 1003.09 611.366 1002.74 610.654C1002.4 609.942 1002.23 609.109 1002.23 608.156C1002.23 607.192 1002.4 606.36 1002.74 605.659C1003.09 604.947 1003.56 604.405 1004.15 604.032C1004.76 603.649 1005.44 603.457 1006.19 603.457ZM1007.09 605.922C1006.49 605.922 1006 606.119 1005.63 606.513C1005.27 606.907 1005.09 607.455 1005.09 608.156C1005.09 608.857 1005.27 609.405 1005.63 609.799C1006 610.194 1006.49 610.391 1007.09 610.391C1007.69 610.391 1008.17 610.188 1008.54 609.783C1008.92 609.377 1009.12 608.835 1009.12 608.156C1009.12 607.466 1008.92 606.924 1008.54 606.53C1008.17 606.124 1007.69 605.922 1007.09 605.922ZM1013.58 600.992C1013.58 600.565 1013.73 600.215 1014.04 599.941C1014.35 599.656 1014.75 599.514 1015.26 599.514C1015.76 599.514 1016.17 599.656 1016.47 599.941C1016.78 600.215 1016.93 600.565 1016.93 600.992C1016.93 601.409 1016.78 601.759 1016.47 602.044C1016.17 602.318 1015.76 602.455 1015.26 602.455C1014.75 602.455 1014.35 602.318 1014.04 602.044C1013.73 601.759 1013.58 601.409 1013.58 600.992ZM1016.65 603.572V612.74H1013.84V603.572H1016.65ZM1027.3 607.91C1027.3 608.14 1027.27 608.392 1027.22 608.665H1020.86C1020.89 609.356 1021.07 609.854 1021.39 610.161C1021.7 610.456 1022.11 610.604 1022.6 610.604C1023.02 610.604 1023.36 610.5 1023.64 610.292C1023.91 610.084 1024.09 609.816 1024.18 609.487H1027.15C1027.03 610.133 1026.77 610.714 1026.36 611.229C1025.96 611.733 1025.44 612.132 1024.82 612.428C1024.2 612.713 1023.5 612.855 1022.73 612.855C1021.83 612.855 1021.04 612.669 1020.33 612.297C1019.64 611.913 1019.1 611.366 1018.71 610.654C1018.31 609.942 1018.12 609.109 1018.12 608.156C1018.12 607.192 1018.31 606.36 1018.69 605.659C1019.09 604.947 1019.63 604.405 1020.33 604.032C1021.04 603.649 1021.83 603.457 1022.73 603.457C1023.64 603.457 1024.44 603.643 1025.13 604.016C1025.82 604.388 1026.35 604.914 1026.73 605.593C1027.11 606.261 1027.3 607.033 1027.3 607.91ZM1024.46 607.483C1024.47 606.88 1024.3 606.431 1023.97 606.135C1023.64 605.829 1023.23 605.675 1022.73 605.675C1022.22 605.675 1021.79 605.829 1021.45 606.135C1021.11 606.442 1020.92 606.891 1020.88 607.483H1024.46ZM1032.1 603.457C1033.26 603.457 1034.19 603.747 1034.88 604.328C1035.58 604.908 1036.02 605.675 1036.19 606.628H1033.56C1033.49 606.256 1033.31 605.965 1033.04 605.757C1032.77 605.538 1032.44 605.429 1032.03 605.429C1031.72 605.429 1031.48 605.5 1031.31 605.642C1031.15 605.774 1031.07 605.965 1031.07 606.217C1031.07 606.502 1031.21 606.716 1031.51 606.858C1031.82 607.001 1032.29 607.143 1032.94 607.285C1033.64 607.45 1034.21 607.619 1034.66 607.795C1035.11 607.959 1035.5 608.233 1035.83 608.616C1036.16 609 1036.32 609.514 1036.32 610.161C1036.32 610.686 1036.18 611.152 1035.9 611.557C1035.61 611.963 1035.2 612.28 1034.66 612.51C1034.13 612.74 1033.49 612.855 1032.76 612.855C1031.52 612.855 1030.53 612.581 1029.78 612.034C1029.04 611.486 1028.58 610.703 1028.42 609.684H1031.13C1031.18 610.079 1031.34 610.38 1031.62 610.588C1031.92 610.796 1032.3 610.9 1032.76 610.9C1033.08 610.9 1033.32 610.829 1033.48 610.686C1033.65 610.533 1033.73 610.336 1033.73 610.095C1033.73 609.777 1033.57 609.553 1033.27 609.421C1032.97 609.279 1032.48 609.131 1031.8 608.978C1031.13 608.835 1030.57 608.682 1030.13 608.518C1029.69 608.353 1029.31 608.09 1029 607.729C1028.68 607.357 1028.52 606.853 1028.52 606.217C1028.52 605.396 1028.83 604.733 1029.46 604.229C1030.08 603.714 1030.96 603.457 1032.1 603.457Z" fill="black"/>
<rect width="132.47" height="32.86" transform="translate(944.922 619.38)" fill="white"/>
<g clip-path="url(#clip1_6514_1403)">
<path d="M956.205 638.624H951.777L951.001 640.81H949.664L953.287 630.847H954.724L958.333 640.81H956.982L956.205 638.624ZM955.831 637.589L953.991 632.442L952.151 637.589H955.831ZM961.358 630.171V640.81H960.05V630.171H961.358ZM964.826 630.171V640.81H963.517V630.171H964.826ZM977.42 630.847V631.896H974.789V640.81H973.481V631.896H970.85V630.847H977.42ZM979.675 632.917L982.091 639.3L984.549 632.917H985.9L981.142 644.504H979.79L981.357 640.68L978.238 632.917H979.675ZM991.373 632.787C992.082 632.787 992.719 632.955 993.285 633.291C993.86 633.626 994.31 634.1 994.636 634.714C994.972 635.318 995.139 636.017 995.139 636.813C995.139 637.608 994.972 638.322 994.636 638.955C994.31 639.578 993.86 640.067 993.285 640.421C992.719 640.766 992.082 640.939 991.373 640.939C990.702 640.939 990.112 640.781 989.604 640.465C989.106 640.139 988.723 639.717 988.454 639.199V644.547H987.146V632.917H988.454V634.498C988.723 633.99 989.106 633.578 989.604 633.262C990.112 632.946 990.702 632.787 991.373 632.787ZM991.114 633.923C990.644 633.923 990.204 634.043 989.791 634.283C989.389 634.522 989.063 634.867 988.814 635.318C988.574 635.759 988.454 636.276 988.454 636.87C988.454 637.465 988.574 637.987 988.814 638.437C989.063 638.878 989.389 639.219 989.791 639.458C990.204 639.698 990.644 639.818 991.114 639.818C991.584 639.818 992.025 639.698 992.437 639.458C992.849 639.209 993.175 638.854 993.414 638.394C993.663 637.934 993.788 637.407 993.788 636.813C993.788 636.219 993.663 635.706 993.414 635.275C993.175 634.834 992.849 634.498 992.437 634.268C992.034 634.038 991.593 633.923 991.114 633.923ZM1000.24 632.787C1000.99 632.787 1001.67 632.955 1002.27 633.291C1002.87 633.626 1003.35 634.105 1003.69 634.728C1004.05 635.351 1004.22 636.065 1004.22 636.87C1004.22 637.666 1004.04 638.375 1003.68 638.998C1003.31 639.612 1002.82 640.091 1002.2 640.436C1001.57 640.771 1000.88 640.939 1000.13 640.939C999.389 640.939 998.723 640.771 998.129 640.436C997.544 640.1 997.084 639.626 996.749 639.012C996.423 638.39 996.26 637.675 996.26 636.87C996.26 636.056 996.432 635.342 996.777 634.728C997.132 634.105 997.611 633.626 998.215 633.291C998.819 632.955 999.494 632.787 1000.24 632.787ZM1000.2 633.866C999.72 633.866 999.284 633.981 998.891 634.211C998.498 634.441 998.181 634.781 997.942 635.231C997.712 635.682 997.597 636.228 997.597 636.87C997.597 637.503 997.707 638.044 997.927 638.495C998.157 638.945 998.464 639.286 998.848 639.516C999.231 639.746 999.657 639.861 1000.13 639.861C1000.61 639.861 1001.05 639.746 1001.46 639.516C1001.89 639.276 1002.23 638.931 1002.48 638.481C1002.74 638.03 1002.87 637.493 1002.87 636.87C1002.87 636.238 1002.75 635.696 1002.5 635.246C1002.26 634.786 1001.93 634.441 1001.52 634.211C1001.12 633.981 1000.68 633.866 1000.2 633.866ZM1007.17 630.171V640.81H1005.86V630.171H1007.17ZM1012.79 632.787C1013.54 632.787 1014.22 632.955 1014.82 633.291C1015.42 633.626 1015.9 634.105 1016.24 634.728C1016.6 635.351 1016.78 636.065 1016.78 636.87C1016.78 637.666 1016.59 638.375 1016.23 638.998C1015.87 639.612 1015.37 640.091 1014.75 640.436C1014.13 640.771 1013.44 640.939 1012.68 640.939C1011.94 640.939 1011.27 640.771 1010.68 640.436C1010.1 640.1 1009.64 639.626 1009.3 639.012C1008.97 638.39 1008.81 637.675 1008.81 636.87C1008.81 636.056 1008.98 635.342 1009.33 634.728C1009.68 634.105 1010.16 633.626 1010.77 633.291C1011.37 632.955 1012.05 632.787 1012.79 632.787ZM1012.75 633.866C1012.27 633.866 1011.84 633.981 1011.44 634.211C1011.05 634.441 1010.73 634.781 1010.49 635.231C1010.26 635.682 1010.15 636.228 1010.15 636.87C1010.15 637.503 1010.26 638.044 1010.48 638.495C1010.71 638.945 1011.02 639.286 1011.4 639.516C1011.78 639.746 1012.21 639.861 1012.68 639.861C1013.16 639.861 1013.6 639.746 1014.02 639.516C1014.44 639.276 1014.78 638.931 1015.04 638.481C1015.3 638.03 1015.42 637.493 1015.42 636.87C1015.42 636.238 1015.3 635.696 1015.05 635.246C1014.81 634.786 1014.49 634.441 1014.07 634.211C1013.67 633.981 1013.23 633.866 1012.75 633.866ZM1021.66 632.787C1022.33 632.787 1022.92 632.946 1023.42 633.262C1023.92 633.578 1024.31 633.99 1024.57 634.498V632.917H1025.89V641.011C1025.89 641.73 1025.73 642.367 1025.41 642.923C1025.1 643.479 1024.65 643.91 1024.08 644.217C1023.5 644.533 1022.84 644.691 1022.08 644.691C1021.42 644.691 1020.81 644.576 1020.27 644.346C1019.72 644.126 1019.27 643.809 1018.93 643.397C1018.58 642.985 1018.38 642.516 1018.31 641.988H1019.59C1019.72 642.439 1020.01 642.813 1020.47 643.11C1020.93 643.407 1021.47 643.556 1022.08 643.556C1022.83 643.556 1023.43 643.33 1023.88 642.88C1024.34 642.439 1024.57 641.816 1024.57 641.011V639.199C1024.31 639.717 1023.92 640.139 1023.42 640.465C1022.92 640.781 1022.33 640.939 1021.66 640.939C1020.95 640.939 1020.31 640.766 1019.74 640.421C1019.17 640.067 1018.72 639.578 1018.38 638.955C1018.06 638.322 1017.89 637.608 1017.89 636.813C1017.89 636.017 1018.06 635.318 1018.38 634.714C1018.72 634.1 1019.17 633.626 1019.74 633.291C1020.31 632.955 1020.95 632.787 1021.66 632.787ZM1021.89 633.923C1021.42 633.923 1020.98 634.038 1020.57 634.268C1020.17 634.498 1019.84 634.834 1019.59 635.275C1019.35 635.706 1019.23 636.219 1019.23 636.813C1019.23 637.407 1019.35 637.934 1019.59 638.394C1019.84 638.845 1020.17 639.195 1020.57 639.444C1020.98 639.693 1021.42 639.818 1021.89 639.818C1022.37 639.818 1022.81 639.698 1023.21 639.458C1023.63 639.219 1023.95 638.878 1024.19 638.437C1024.44 637.987 1024.57 637.465 1024.57 636.87C1024.57 636.276 1024.44 635.759 1024.19 635.318C1023.95 634.867 1023.63 634.522 1023.21 634.283C1022.81 634.043 1022.37 633.923 1021.89 633.923ZM1027.83 630.76C1027.83 630.511 1027.91 630.3 1028.09 630.128C1028.26 629.955 1028.47 629.869 1028.7 629.869C1028.95 629.869 1029.16 629.955 1029.34 630.128C1029.51 630.3 1029.6 630.511 1029.6 630.76C1029.6 631.01 1029.51 631.22 1029.34 631.393C1029.16 631.565 1028.95 631.652 1028.7 631.652C1028.46 631.652 1028.24 631.565 1028.07 631.393C1027.91 631.22 1027.83 631.01 1027.83 630.76ZM1029.35 632.917V640.81H1028.04V632.917H1029.35ZM1038.67 636.54C1038.67 636.818 1038.65 637.076 1038.61 637.316H1032.33C1032.37 638.102 1032.61 638.725 1033.06 639.185C1033.52 639.635 1034.11 639.861 1034.82 639.861C1035.35 639.861 1035.81 639.741 1036.17 639.501C1036.54 639.262 1036.82 638.945 1036.99 638.552H1038.4C1038.15 639.243 1037.72 639.813 1037.1 640.263C1036.5 640.714 1035.74 640.939 1034.82 640.939C1034.08 640.939 1033.42 640.771 1032.83 640.436C1032.26 640.1 1031.81 639.626 1031.48 639.012C1031.16 638.39 1030.99 637.675 1030.99 636.87C1030.99 636.056 1031.16 635.342 1031.48 634.728C1031.81 634.105 1032.27 633.626 1032.86 633.291C1033.46 632.955 1034.14 632.787 1034.92 632.787C1035.66 632.787 1036.31 632.95 1036.87 633.276C1037.44 633.602 1037.88 634.048 1038.2 634.613C1038.51 635.179 1038.67 635.821 1038.67 636.54ZM1037.31 636.367C1037.31 635.859 1037.19 635.418 1036.97 635.045C1036.75 634.661 1036.45 634.369 1036.07 634.168C1035.69 633.966 1035.28 633.866 1034.82 633.866C1034.14 633.866 1033.57 634.091 1033.11 634.541C1032.65 634.982 1032.39 635.591 1032.35 636.367H1037.31ZM1043.02 632.787C1043.87 632.787 1044.55 633.013 1045.04 633.463C1045.54 633.904 1045.82 634.513 1045.86 635.289H1044.51C1044.49 634.848 1044.34 634.493 1044.07 634.225C1043.79 633.957 1043.41 633.823 1042.92 633.823C1042.42 633.823 1042.03 633.942 1041.74 634.182C1041.46 634.412 1041.32 634.704 1041.32 635.059C1041.32 635.356 1041.41 635.596 1041.58 635.778C1041.76 635.95 1041.98 636.08 1042.24 636.166C1042.51 636.252 1042.87 636.343 1043.32 636.439C1043.89 636.573 1044.35 636.707 1044.7 636.842C1045.05 636.966 1045.36 637.182 1045.61 637.489C1045.85 637.786 1045.98 638.193 1045.98 638.711C1045.98 639.142 1045.85 639.53 1045.61 639.875C1045.36 640.211 1045.01 640.474 1044.56 640.666C1044.11 640.848 1043.59 640.939 1043 640.939C1042.12 640.939 1041.41 640.719 1040.88 640.278C1040.35 639.837 1040.06 639.228 1040.01 638.452H1041.36C1041.38 638.893 1041.54 639.247 1041.82 639.516C1042.12 639.774 1042.51 639.904 1043 639.904C1043.54 639.904 1043.95 639.794 1044.24 639.573C1044.54 639.353 1044.69 639.06 1044.69 638.696C1044.69 638.399 1044.59 638.164 1044.41 637.992C1044.24 637.81 1044.02 637.675 1043.75 637.589C1043.48 637.493 1043.11 637.393 1042.64 637.287C1042.08 637.163 1041.62 637.038 1041.26 636.914C1040.92 636.779 1040.62 636.573 1040.37 636.295C1040.13 636.017 1040.01 635.634 1040.01 635.145C1040.01 634.714 1040.13 634.321 1040.37 633.966C1040.62 633.602 1040.97 633.315 1041.42 633.104C1041.88 632.893 1042.41 632.787 1043.02 632.787Z" fill="#6E6E6E"/>
</g>
<path d="M898.231 604.505C906.414 604.505 913.153 611.244 913.153 619.427C913.153 627.67 906.414 634.349 898.231 634.349C889.987 634.349 883.309 627.67 883.309 619.427C883.309 611.244 889.987 604.505 898.231 604.505ZM903.165 626.046C903.646 625.564 904.007 624.842 904.007 624.06C904.007 623.579 903.766 623.097 903.466 622.796L902.623 621.954C902.262 621.593 901.781 621.352 901.239 621.352H897.268C896.666 621.112 895.944 619.427 895.343 619.427C894.681 619.427 894.079 619.307 893.477 619.006L892.815 618.705C892.575 618.584 892.454 618.344 892.454 618.043C892.454 617.742 892.635 617.441 892.936 617.381L894.801 616.719C894.861 616.719 894.982 616.719 895.102 616.719C895.343 616.719 895.583 616.779 895.704 616.9L896.305 617.441C896.365 617.501 896.486 617.501 896.606 617.501H896.967C897.328 617.501 897.509 617.14 897.388 616.84L896.426 614.974C896.426 614.914 896.365 614.794 896.365 614.734C896.365 614.613 896.426 614.493 896.546 614.373L897.148 613.831C897.208 613.711 897.328 613.651 897.449 613.651H897.99C898.11 613.651 898.231 613.651 898.351 613.53L898.832 613.049C899.013 612.868 899.013 612.567 898.832 612.387L898.532 612.086C898.351 611.906 898.351 611.605 898.532 611.424L899.193 610.762L899.434 610.522C899.795 610.161 899.795 609.499 899.434 609.138L897.749 607.453C897.268 607.453 896.726 607.513 896.305 607.573V608.295C896.305 609.017 895.523 609.439 894.861 609.138L893.417 608.416C890.649 609.619 888.483 611.785 887.22 614.553C887.821 615.456 888.724 616.779 889.326 617.622C889.626 618.103 889.987 618.464 890.409 618.885H890.469C891.01 619.427 891.672 619.848 892.334 620.209C893.176 620.63 894.44 621.292 895.282 621.773C895.884 622.135 896.305 622.796 896.305 623.458V625.384C896.305 625.925 896.486 626.407 896.847 626.768C897.749 627.67 898.291 629.054 898.231 629.836V631.461C899.073 631.461 899.915 631.401 900.758 631.22L901.841 628.392C901.961 628.031 902.021 627.73 902.082 627.369C902.142 627.129 902.262 626.888 902.443 626.707C902.683 626.527 902.924 626.286 903.165 626.046ZM908.399 620.57L910.144 620.991C910.205 620.51 910.265 619.968 910.265 619.427C910.265 617.501 909.783 615.696 908.941 614.072L908.159 614.493C907.918 614.613 907.738 614.734 907.617 614.974L906.414 616.719C906.294 616.96 906.173 617.261 906.173 617.562C906.173 617.802 906.294 618.103 906.414 618.344L907.497 619.968C907.738 620.269 908.038 620.45 908.399 620.57Z" fill="#14B9D5"/>
</g>
<rect x="842.5" y="136.5" width="375" height="700" rx="187.5" fill="url(#pattern1_6514_1403)"/>
<rect x="1247.5" y="311.92" width="368.98" height="700" rx="184.49" fill="url(#pattern2_6514_1403)"/>
</g>
<defs>
<filter id="filter0_i_6514_1403" x="0" y="0" width="1920" height="1150" filterUnits="userSpaceOnUse" color-interpolation-filters="sRGB">
<feFlood flood-opacity="0" result="BackgroundImageFix"/>
<feBlend mode="normal" in="SourceGraphic" in2="BackgroundImageFix" result="shape"/>
<feColorMatrix in="SourceAlpha" type="matrix" values="0 0 0 0 0 0 0 0 0 0 0 0 0 0 0 0 0 0 127 0" result="hardAlpha"/>
<feOffset dy="-200"/>
<feComposite in2="hardAlpha" operator="arithmetic" k2="-1" k3="1"/>
<feColorMatrix type="matrix" values="0 0 0 0 1 0 0 0 0 1 0 0 0 0 1 0 0 0 0.98 0"/>
<feBlend mode="normal" in2="shape" result="effect1_innerShadow_6514_1403"/>
</filter>
<pattern id="pattern0_6514_1403" patternContentUnits="objectBoundingBox" width="1" height="1">
<use xlink:href="#image0_6514_1403" transform="scale(0.000468302 0.000781861)"/>
</pattern>
<filter id="filter1_d_6514_1403" x="257.699" y="543.17" width="1189.59" height="163.72" filterUnits="userSpaceOnUse" color-interpolation-filters="sRGB">
<feFlood flood-opacity="0" result="BackgroundImageFix"/>
<feColorMatrix in="SourceAlpha" type="matrix" values="0 0 0 0 0 0 0 0 0 0 0 0 0 0 0 0 0 0 127 0" result="hardAlpha"/>
<feOffset/>
<feGaussianBlur stdDeviation="15"/>
<feComposite in2="hardAlpha" operator="out"/>
<feColorMatrix type="matrix" values="0 0 0 0 0 0 0 0 0 0 0 0 0 0 0 0 0 0 0.1 0"/>
<feBlend mode="normal" in2="BackgroundImageFix" result="effect1_dropShadow_6514_1403"/>
<feBlend mode="normal" in="SourceGraphic" in2="effect1_dropShadow_6514_1403" result="shape"/>
</filter>
<pattern id="pattern1_6514_1403" patternContentUnits="objectBoundingBox" width="1" height="1">
<use xlink:href="#image1_6514_1403" transform="matrix(0.00273304 0 0 0.00146413 -0.899317 0)"/>
</pattern>
<pattern id="pattern2_6514_1403" patternContentUnits="objectBoundingBox" width="1" height="1">
<use xlink:href="#image2_6514_1403" transform="matrix(0.00277763 0 0 0.00146413 -0.922147 0)"/>
</pattern>
<clipPath id="clip0_6514_1403">
<rect width="111.94" height="22.59" fill="white" transform="translate(682.031 624.52)"/>
</clipPath>
<clipPath id="clip1_6514_1403">
<rect width="111.93" height="22.59" fill="white" transform="translate(949.031 624.52)"/>
</clipPath>
</defs>
</svg>
